PathFileType	4	(X/Y/Z)	c:/Users/goper/Files/vsCode/490R/osim_files/C06/C06_Slow_07.trc
DataRate	CameraRate	NumFrames	NumMarkers	Units                	OrigDataRate	OrigDataStartFrame	OrigNumFrames
250.00	250.00	10	36	mm	250.0	2137	3418
                Frame#	Time	LPSIS			LASIS			LTH1			LTH2			LTH3			LTH4			LLFE			LMFE			LSH1			LSH2			LSH3			LSH4			LLMAL			LMMAL			LCAL			LMTP5			LTOE			LMTP1			RPSIS			RASIS			RTH1			RTH2			RTH3			RTH4			RLFE			RMFE			RSH1			RSH2			RSH3			RSH4			RLMAL			RMMAL			RCAL			RMTP1			RTOE			RMTP5		
		X1	Y1	Z1	X2	Y2	Z2	X3	Y3	Z3	X4	Y4	Z4	X5	Y5	Z5	X6	Y6	Z6	X7	Y7	Z7	X8	Y8	Z8	X9	Y9	Z9	X10	Y10	Z10	X11	Y11	Z11	X12	Y12	Z12	X13	Y13	Z13	X14	Y14	Z14	X15	Y15	Z15	X16	Y16	Z16	X17	Y17	Z17	X18	Y18	Z18	X19	Y19	Z19	X20	Y20	Z20	X21	Y21	Z21	X22	Y22	Z22	X23	Y23	Z23	X24	Y24	Z24	X25	Y25	Z25	X26	Y26	Z26	X27	Y27	Z27	X28	Y28	Z28	X29	Y29	Z29	X30	Y30	Z30	X31	Y31	Z31	X32	Y32	Z32	X33	Y33	Z33	X34	Y34	Z34	X35	Y35	Z35	X36	Y36	Z36

2137	8.54400	-2201.43701	990.90149	174.11446	-2373.60791	966.60645	283.26263	-2298.99976	758.04321	346.51160	-2310.94263	695.05255	345.82184	-2372.01538	766.88086	331.43954	-2375.43921	704.36011	335.27863	-2325.40234	448.48337	316.77972	-2336.80298	426.04187	204.01477	-2199.28516	422.86469	321.93405	-2171.31934	390.31195	317.45050	-2243.15796	375.71463	327.99173	-2210.52856	352.13733	327.52914	-1996.92859	234.82794	260.51889	-2036.56067	235.53981	190.76965	-1971.95972	289.47369	207.84708	-1963.86011	109.32341	273.21219	-2016.98621	67.99123	219.29857	-2004.79004	92.38235	168.55861	-2199.51074	992.96124	102.38537	-2387.37817	979.15778	44.65899	-2340.92505	770.94489	-39.99064	-2364.80859	711.34827	-29.71132	-2410.79346	793.44379	-21.31717	-2423.73779	732.92371	-16.97172	-2438.81177	457.04105	36.31748	-2449.30688	477.48956	142.04236	-2386.48413	379.96518	16.56969	-2388.30518	331.45551	18.71153	-2445.17090	372.31506	30.97625	-2438.64893	325.99570	32.50560	-2392.91016	88.31301	77.13007	-2402.75952	114.72002	153.13095	-2323.77612	66.76311	123.41731	-2526.79810	36.87897	177.07127	-2548.29883	58.54648	130.20445	-2510.32446	33.78845	62.53335
2138	8.54800	-2204.97827	992.03687	173.96858	-2377.24146	967.69965	283.19315	-2304.73242	758.78314	346.66730	-2317.18774	696.05969	346.33664	-2377.71216	768.37488	331.45599	-2381.44653	706.26080	334.81177	-2334.80127	449.74023	317.07343	-2346.26562	427.44272	204.15633	-2208.85156	423.94312	322.21805	-2180.93481	391.30966	317.70712	-2252.73877	376.80148	328.11249	-2220.25903	353.28198	327.55652	-2006.85449	235.23918	260.43262	-2046.36267	236.43285	190.74878	-1980.30945	289.20822	207.66856	-1976.19702	109.21358	273.96857	-2030.04236	68.66375	220.12411	-2017.12646	92.60098	169.26883	-2203.71777	993.86566	102.11565	-2391.13525	980.01654	44.50266	-2343.79175	771.67371	-40.05500	-2360.83789	707.98376	-26.62106	-2413.75732	793.73492	-21.37737	-2425.50562	732.43665	-16.40822	-2439.44019	456.96619	36.09249	-2449.75903	477.37115	141.91371	-2386.88647	380.05771	16.25151	-2388.61133	331.56522	18.45214	-2445.54419	372.26587	30.74864	-2438.96118	326.03021	32.27743	-2392.90552	88.37124	77.05984	-2402.79297	114.78548	153.08539	-2323.79321	66.80723	123.44280	-2526.77856	36.85703	177.09105	-2548.30005	58.54897	130.23842	-2510.29297	33.75356	62.49406
2139	8.55200	-2208.80127	993.07074	173.75273	-2380.99707	968.80450	283.13873	-2310.37427	759.55865	346.78433	-2323.61890	697.15436	346.88931	-2383.33350	769.91278	331.40079	-2387.68872	707.76514	334.97885	-2344.19873	451.02347	317.30035	-2355.58618	428.75244	204.18597	-2218.46533	425.17746	322.40335	-2190.52661	392.34070	317.90387	-2262.33472	378.04169	328.13889	-2229.70166	354.45404	327.56796	-2016.65515	235.57961	260.47626	-2056.21167	237.11530	190.78471	-1988.82764	288.76544	207.50072	-1988.77795	108.98805	274.73386	-2041.25073	67.73833	221.08862	-2029.53931	92.70146	169.90244	-2207.30884	995.20013	102.07531	-2394.42334	980.70117	44.40826	-2346.62061	772.34106	-40.12376	-2363.19897	708.27185	-26.62650	-2415.36523	792.99561	-21.68026	-2428.21289	732.65051	-16.45251	-2440.04810	456.94574	35.91948	-2450.31152	477.35928	141.90228	-2387.02173	380.19797	16.10699	-2388.98901	331.62064	18.22334	-2445.95728	372.24304	30.59835	-2438.06274	325.11093	32.17399	-2392.91040	88.35343	77.09672	-2402.85010	114.84781	153.04947	-2323.80664	66.78675	123.45123	-2526.73901	36.85601	177.08131	-2548.30371	58.54588	130.23883	-2510.29883	33.73036	62.47587
2140	8.55600	-2212.61279	994.07330	173.60448	-2384.81128	969.92413	283.04959	-2315.18652	759.68665	347.11130	-2330.02979	698.39948	347.33810	-2388.96924	771.45526	331.46204	-2393.82764	709.34070	335.14673	-2353.48071	452.34756	317.45874	-2365.04956	430.20911	204.28177	-2228.04907	426.43625	322.52139	-2200.09180	393.40115	318.03629	-2271.95020	379.31888	328.21817	-2239.36548	355.80322	327.65329	-2026.98999	235.65401	260.38028	-2066.26709	237.67513	190.77016	-1997.47607	288.13876	207.31963	-2001.48352	108.65737	275.54907	-2054.43970	68.14462	221.84978	-2042.11572	92.64725	170.58485	-2210.14478	996.68274	101.68088	-2398.48828	981.42792	44.12671	-2349.43921	772.99695	-40.20084	-2365.68945	708.70038	-26.68425	-2418.27759	793.27356	-21.76393	-2430.77344	732.85681	-16.51486	-2440.57959	457.02121	35.84967	-2450.74048	477.28967	141.92068	-2387.52441	380.27289	15.85484	-2389.42554	331.70877	17.98127	-2446.43311	372.23123	30.49687	-2438.36670	325.11401	32.09524	-2392.91040	88.40360	77.04922	-2402.88916	114.94162	153.02007	-2323.81030	66.81984	123.45974	-2526.69971	36.84230	177.09483	-2548.29590	58.51658	130.22528	-2510.29370	33.72262	62.47991
2141	8.56000	-2216.43555	995.01904	173.51268	-2388.41821	970.98627	282.89096	-2321.83057	761.16284	347.16339	-2336.32617	699.39948	347.83884	-2394.53564	773.06519	331.45129	-2400.07544	711.13837	335.20599	-2362.53955	453.66467	317.61172	-2374.42261	431.58939	204.29221	-2237.58350	427.80023	322.56955	-2209.62793	394.48749	318.09991	-2281.48633	380.62393	328.33548	-2248.97998	357.12476	327.68759	-2037.34167	235.56239	260.44858	-2076.27759	237.99422	190.77618	-2006.33691	287.26199	207.23369	-2014.47461	108.20318	276.38580	-2067.83960	68.53188	222.57349	-2054.75610	92.47506	171.23775	-2215.31592	997.19598	101.80721	-2402.13159	982.21362	43.98515	-2352.26196	774.09552	-39.82228	-2368.16309	709.14020	-26.73860	-2422.34863	794.11487	-21.59991	-2433.38306	732.97308	-16.54269	-2441.17944	457.00052	35.80388	-2452.03320	477.24683	142.33429	-2388.01904	380.35468	15.63307	-2389.82373	331.81628	17.77676	-2446.89014	372.23010	30.43725	-2438.76904	325.13858	32.08123	-2392.92407	88.43679	77.01269	-2402.90234	115.01147	152.97098	-2323.79175	66.88214	123.44537	-2526.72461	36.87639	177.11748	-2548.29858	58.48528	130.16747	-2510.27686	33.72496	62.45300
2142	8.56400	-2220.19360	996.02563	173.38510	-2392.06128	972.07819	282.70480	-2326.74561	761.51385	347.42822	-2342.61084	700.58978	348.19269	-2400.09082	774.63824	331.38760	-2406.37964	712.56519	335.94064	-2371.94629	455.23926	317.73495	-2383.81250	433.04221	204.32184	-2247.15894	429.00574	322.54645	-2219.13159	395.59589	318.09027	-2290.97949	381.96478	328.43436	-2258.61646	358.45938	327.77652	-2047.68555	235.29324	260.52213	-2086.51270	238.24474	190.81882	-2014.99902	286.43201	207.42819	-2027.63818	107.60521	277.25198	-2081.34888	68.74410	223.27473	-2067.48682	92.18233	171.89311	-2218.83643	998.46259	101.87549	-2405.88452	982.93872	43.76368	-2355.91309	774.75909	-39.94817	-2370.53345	709.50470	-26.74836	-2426.17920	795.16516	-22.13016	-2435.87207	733.17804	-16.61556	-2441.84570	457.03183	35.71816	-2457.41797	479.33221	144.07924	-2388.53076	380.43811	15.44147	-2390.20288	331.89600	17.61183	-2447.30664	372.24854	30.41375	-2439.22021	325.17456	32.07669	-2392.94507	88.46791	76.96825	-2402.93164	115.08792	152.94423	-2323.77930	66.90701	123.42822	-2526.71045	36.89508	177.10786	-2548.31421	58.49280	130.14885	-2510.30811	33.74053	62.46143
2143	8.56800	-2223.83789	997.02979	173.32280	-2395.77393	973.22223	282.52072	-2332.36182	762.42523	347.58264	-2349.06274	701.80646	348.51337	-2405.57764	776.32446	331.43280	-2412.22778	714.54382	335.69122	-2381.08325	456.75204	317.85052	-2393.25464	434.51620	204.30460	-2256.66406	430.32407	322.58072	-2228.60059	396.72272	318.00296	-2300.64160	383.27170	328.48410	-2268.17139	359.78836	327.80753	-2058.39575	234.81551	260.62643	-2096.75635	238.23239	190.86211	-2024.24329	284.95163	207.66878	-2040.83228	106.86743	278.05597	-2094.86108	68.80367	224.00314	-2080.39722	91.70695	172.57465	-2222.63477	999.51880	101.90454	-2409.60571	983.74756	43.57543	-2358.36523	775.16699	-40.21705	-2384.64722	714.26782	-29.04344	-2429.25732	795.52808	-22.43171	-2438.44507	733.25012	-16.65207	-2442.39795	457.06522	35.64521	-2461.70044	480.54727	145.36914	-2389.03711	380.51987	15.29351	-2390.62378	331.96429	17.50652	-2447.69873	372.22855	30.41242	-2440.70142	326.00079	31.96437	-2392.96948	88.47362	76.95808	-2402.93164	115.15986	152.92104	-2323.78589	66.93660	123.44834	-2526.71460	36.91859	177.12793	-2548.32593	58.42588	130.15338	-2510.28076	33.75555	62.44896
2144	8.57200	-2227.95581	997.82587	173.20741	-2399.50317	974.32050	282.25894	-2337.94067	763.36230	347.69562	-2355.33154	702.87164	348.78412	-2411.05469	777.98059	331.42035	-2418.32837	716.30463	335.86020	-2390.26514	458.27753	317.95963	-2402.54932	436.07480	204.34872	-2266.15747	431.53036	322.53314	-2238.04565	397.87045	317.87128	-2310.11401	384.63727	328.52527	-2277.76050	361.16968	327.79883	-2069.15698	234.12776	260.77075	-2107.22534	238.07901	190.99504	-2033.66455	283.44690	207.78377	-2054.13721	106.01827	278.89688	-2108.53247	68.72078	224.61226	-2093.29736	91.12667	173.25691	-2226.46021	1000.52594	101.93005	-2413.20068	984.38464	43.37966	-2360.95386	775.89087	-40.06316	-2395.82935	717.61487	-30.50080	-2432.11255	795.67218	-22.52691	-2440.85181	733.36829	-16.73653	-2442.96509	457.14493	35.59637	-2477.16431	485.20697	143.82294	-2389.52954	380.61011	15.16605	-2391.07593	332.09091	17.37326	-2448.09912	372.27878	30.47378	-2441.04541	326.02252	31.94559	-2392.93604	88.53093	76.94299	-2402.90649	115.22863	152.92598	-2323.82324	66.97582	123.46040	-2526.69531	36.92953	177.15669	-2548.33081	58.43576	130.11385	-2510.27051	33.76489	62.42762
2145	8.57600	-2231.31177	998.88867	173.30080	-2403.22437	975.39331	281.98975	-2343.64893	764.41040	347.79352	-2361.49170	703.99896	348.97726	-2416.43091	779.56860	331.36258	-2424.66187	717.84674	336.28915	-2399.35693	459.88077	318.03607	-2411.83105	437.58066	204.30415	-2275.61499	432.79468	322.48267	-2247.56030	399.04593	317.82593	-2319.75000	385.93344	328.52472	-2287.38208	362.44992	327.77997	-2079.97827	233.30632	260.93585	-2117.14453	238.01462	190.75078	-2043.60449	281.67316	208.16010	-2067.58569	105.05544	279.80200	-2122.25732	68.58263	225.27466	-2106.28345	90.38428	173.88029	-2228.63672	1001.94684	101.56468	-2416.96948	985.16583	43.11127	-2363.51562	776.49939	-39.80787	-2400.78687	718.46271	-30.58814	-2434.94727	795.91937	-22.60330	-2443.27637	733.45917	-16.70699	-2443.49634	457.19434	35.58154	-2485.65234	487.96689	144.20673	-2390.01147	380.70215	15.09284	-2391.47144	332.19345	17.27625	-2448.52295	372.37424	30.53556	-2441.45776	326.11261	31.95807	-2392.97388	88.53241	76.95808	-2402.94336	115.31628	152.95290	-2323.83057	67.00765	123.48144	-2526.70996	36.97139	177.13655	-2548.32373	58.41591	130.13419	-2510.23486	33.77711	62.43704
2146	8.58000	-2235.08081	999.82825	173.23868	-2406.89966	976.47546	281.67523	-2349.38232	765.42340	347.89706	-2367.82983	705.27075	349.17499	-2421.88647	781.32874	331.36566	-2430.43140	719.81122	336.09775	-2408.37085	461.41431	318.10382	-2421.09448	439.12213	204.32593	-2284.57104	434.09192	322.30316	-2257.17651	400.14737	317.81213	-2328.92432	387.27371	328.24506	-2296.97241	363.64957	327.75522	-2091.01758	232.32501	261.15878	-2129.41016	236.30856	191.69463	-2053.26245	279.77042	208.20641	-2080.99390	103.94353	280.62091	-2136.03247	68.26223	225.98013	-2119.97925	89.38932	175.00290	-2232.69263	1002.90332	101.56530	-2420.53174	985.73846	42.92413	-2367.21094	777.01410	-40.02291	-2401.43286	717.83539	-29.91535	-2437.68652	796.05878	-22.69648	-2445.74048	733.59882	-16.78368	-2443.92017	457.25894	35.52763	-2484.55493	487.61087	144.44211	-2390.26831	380.86465	14.97966	-2391.36035	332.44348	17.37620	-2448.87622	372.45648	30.62965	-2441.79907	326.19699	31.99994	-2393.01294	88.57625	76.96880	-2403.21118	115.05190	153.38403	-2323.81348	67.04447	123.48643	-2526.75854	37.02845	177.15793	-2548.31934	58.43978	130.11967	-2510.22729	33.77540	62.42286
